# xmcd CD database file
#
# Track frame offsets:
#	150
#	9126
#	25357
#	41294
#	55783
#	67446
#	78182
#	84850
#	90640
#	98416
#	111423
#	121109
#	126306
#	141892
#	153546
#	165097
#	174951
#	184564
#
# Disc length: 2632 seconds
#
# Revision: 0
# Processed by: cddbd v1.5.1PL0 Copyright (c) Steve Scherf et al.
# Submitted via: CDex 1.50beta9
#
DISCID=d10a4612
DTITLE=Judy Garland - Over the Rainbow, CD 3
DYEAR=1900
DGENRE=Jazz
TTITLE0=Wait Till the sun shines Nellie
TTITLE1=Liza
TTITLE2=Connecticut
TTITLE3=I've got you under my Skin
TTITLE4=Tearbucket Jim
TTITLE5=Over the Rainbox
TTITLE6=For me and my Gal
TTITLE7=Who
TTITLE8=Embraceable You
TTITLE9=Confess
TTITLE10=I don't care
TTITLE11=Ma, he's makin Eyes at me
TTITLE12=Maybe it's because
TTITLE13=Sam's Song
TTITLE14=Get Happy
TTITLE15=Goodnight Irene
TTITLE16=Tzena, Tzena, Tzena
TTITLE17=Friendly Star
EXTD=
EXTT0=
EXTT1=
EXTT2=
EXTT3=
EXTT4=
EXTT5=
EXTT6=
EXTT7=
EXTT8=
EXTT9=
EXTT10=
EXTT11=
EXTT12=
EXTT13=
EXTT14=
EXTT15=
EXTT16=
EXTT17=
PLAYORDER=
